<?xml version="1.0" encoding="UTF-8" standalone="no"?>
<svg
   width="200"
   height="200"
   viewBox="0 0 200 200"
   version="1.1"
   id="svg15"
   sodipodi:docname="logo.svg"
   inkscape:version="1.3.2 (091e20e, 2023-11-25)"
   inkscape:export-filename="favicon.ico"
   inkscape:export-xdpi="15.36"
   inkscape:export-ydpi="15.36"
   xmlns:inkscape="http://www.inkscape.org/namespaces/inkscape"
   xmlns:sodipodi="http://sodipodi.sourceforge.net/DTD/sodipodi-0.dtd"
   xmlns="http://www.w3.org/2000/svg"
   xmlns:svg="http://www.w3.org/2000/svg">
  <defs
     id="defs15" />
  <sodipodi:namedview
     id="namedview15"
     pagecolor="#ffffff"
     bordercolor="#000000"
     borderopacity="0.25"
     inkscape:showpageshadow="2"
     inkscape:pageopacity="0.0"
     inkscape:pagecheckerboard="0"
     inkscape:deskcolor="#d1d1d1"
     inkscape:zoom="1.18"
     inkscape:cx="100"
     inkscape:cy="269.91525"
     inkscape:window-width="1504"
     inkscape:window-height="622"
     inkscape:window-x="36"
     inkscape:window-y="25"
     inkscape:window-maximized="0"
     inkscape:current-layer="svg15" />
  <path
     d="m 172.63558,145.27374 c -5.50848,0.0132 -10.5879,1.83297 -14.67625,4.8943 l 0.065,-0.0462 -21.8578,-19.86444 c 5.4329,-7.26587 8.702,-16.42515 8.702,-26.35074 0,-10.69375 -3.7888,-20.50027 -10.10417,-28.1535 l 0.06,0.0727 24.14454,-24.137931 c 3.87383,2.588888 8.6264,4.138403 13.74181,4.138403 13.76165,0 24.91267,-11.151048 24.91267,-24.912694 C 197.62338,17.15199 186.47236,6 172.71071,6 c -13.76166,0 -24.9127,11.151045 -24.9127,24.913638 0,5.12108 1.53999,9.879281 4.19509,13.834403 l -0.06,-0.09275 -24.13739,24.137979 c -7.5876,-6.254866 -17.40643,-10.051238 -28.120963,-10.051238 -6.207596,0 -12.111946,1.2755 -17.478647,3.58092 l 0.292,-0.1125 -6.8407,-12.417133 c 5.2439,-4.55415 8.531925,-11.230418 8.531925,-18.678616 0,-13.649215 -11.065075,-24.707661 -24.707676,-24.707661 -13.642572,0 -24.707648,11.065061 -24.707648,24.707661 0,13.649216 11.065076,24.707664 24.707648,24.707664 0.0475,0 0.1,0 0.145,0 h -0.0066 c 2.636126,-0.03975 5.158876,-0.483725 7.511551,-1.2849 l -0.1725,0.053 6.869,12.476663 C 62.1766,75.30588 54.669825,88.69999 54.642425,103.86 v 0.007 c 0.065,4.6203 0.82875,9.04216 2.1825,13.1853 l -0.085,-0.31183 -9.429576,3.99667 C 42.793952,114.30319 35.416601,110.15627 27.061363,110.15627 13.438605,110.15627 2.4,121.19488 2.4,134.81763 c 0,13.62276 11.038605,24.66137 24.661363,24.66137 13.622764,0 24.661362,-11.03861 24.661362,-24.66137 0,-1.74792 -0.1775,-3.44864 -0.5235,-5.09273 l 0.0275,0.15875 9.401225,-3.98722 c 7.72885,13.86748 22.308675,23.09103 39.039027,23.09103 11.462853,0 21.918483,-4.33682 29.816433,-11.44961 l -0.04,0.033 21.92509,19.92392 c -2.22025,3.59987 -3.54309,7.9556 -3.57142,12.62884 v 0.007 c 0,13.72196 11.12457,24.84655 24.84655,24.84655 13.72195,0 24.84655,-11.12459 24.84655,-24.84655 0,-13.72197 -11.1246,-24.84655 -24.84655,-24.84655 v 0 z M 44.690827,30.978178 c 0,-8.239008 6.670598,-14.907743 14.907747,-14.907743 8.239001,0 14.907726,6.670595 14.907726,14.907743 0,8.239011 -6.6706,14.907736 -14.907726,14.907736 v 0 C 51.368975,45.872694 44.704052,39.205879 44.690827,30.978178 Z M 26.867293,149.71308 c -8.22956,-0.007 -14.894515,-6.6706 -14.894515,-14.90113 0,-8.22955 6.670597,-14.90112 14.90113,-14.90112 8.229568,0 14.894519,6.66114 14.901119,14.89451 v 0 c -0.01322,8.22959 -6.680026,14.89451 -14.907734,14.90774 z M 172.63558,16.070058 c 8.23903,0 14.90775,6.670595 14.90775,14.907743 0,8.239008 -6.67057,14.907735 -14.90775,14.907735 -8.239,0 -14.90773,-6.670597 -14.90773,-14.907735 v 0 c 0.0132,-8.229561 6.68005,-14.894516 14.90773,-14.907743 z M 64.56825,103.86209 c 0,0 0,0 0,-0.007 0,-19.42693 15.7496,-35.17653 35.176527,-35.17653 19.426933,0 35.176533,15.7496 35.176533,35.17653 0,19.42692 -15.7496,35.17653 -35.176533,35.17653 v 0 C 80.32445,139.01216 64.5881,123.27579 64.561625,103.86209 v 0 z m 108.06733,81.16679 c -8.239,0 -14.90773,-6.6706 -14.90773,-14.90774 0,-8.23902 6.6706,-14.90775 14.90773,-14.90775 8.23903,0 14.90775,6.6706 14.90775,14.90775 v 0 c -0.0132,8.22956 -6.68002,14.89451 -14.90775,14.90774 z"
     id="path1"
     style="fill:#3ecc5f;fill-opacity:1;stroke-width:6.62583" />
</svg>
