<?xml version="1.0" encoding="UTF-8" standalone="no"?>
<!-- Uploaded to: SVG Repo, www.svgrepo.com, Generator: SVG Repo Mixer Tools -->

<svg
   fill="#000000"
   width="16cm"
   height="10cm"
   viewBox="0 0 24.188976 15.11811"
   version="1.1"
   id="svg1"
   sodipodi:docname="network-svgrepo-com.svg"
   inkscape:version="1.3.2 (091e20e, 2023-11-25)"
   xmlns:inkscape="http://www.inkscape.org/namespaces/inkscape"
   xmlns:sodipodi="http://sodipodi.sourceforge.net/DTD/sodipodi-0.dtd"
   xmlns="http://www.w3.org/2000/svg"
   xmlns:svg="http://www.w3.org/2000/svg"
   xmlns:rdf="http://www.w3.org/1999/02/22-rdf-syntax-ns#"
   xmlns:cc="http://creativecommons.org/ns#"
   xmlns:dc="http://purl.org/dc/elements/1.1/">
  <defs
     id="defs1">
    <rect
       x="132.21107"
       y="283.30944"
       width="341.54527"
       height="73.975243"
       id="rect1" />
  </defs>
  <sodipodi:namedview
     id="namedview1"
     pagecolor="#ffffff"
     bordercolor="#000000"
     borderopacity="0.25"
     inkscape:showpageshadow="2"
     inkscape:pageopacity="0.0"
     inkscape:pagecheckerboard="0"
     inkscape:deskcolor="#d1d1d1"
     showgrid="false"
     inkscape:zoom="0.63534769"
     inkscape:cx="306.91856"
     inkscape:cy="489.49576"
     inkscape:window-width="1680"
     inkscape:window-height="997"
     inkscape:window-x="0"
     inkscape:window-y="925"
     inkscape:window-maximized="1"
     inkscape:current-layer="svg1"
     inkscape:document-units="cm" />
  <title
     id="title1">network</title>
  <path
     d="m 15.014777,6.8009566 c -0.220339,5.291e-4 -0.423516,0.073319 -0.58705,0.1957721 l 0.0026,-0.00185 -0.874312,-0.7945774 c 0.217316,-0.2906348 0.34808,-0.6570061 0.34808,-1.0540298 0,-0.4277498 -0.151552,-0.8200106 -0.404167,-1.1261401 l 0.0024,0.00291 0.965782,-0.965517 c 0.154953,0.1035555 0.345056,0.1655361 0.549672,0.1655361 0.550466,0 0.996507,-0.4460419 0.996507,-0.9965077 0,-0.5504659 -0.446041,-0.9965455 -0.996507,-0.9965455 -0.550466,0 -0.996508,0.4460418 -0.996508,0.9965455 0,0.2048432 0.0616,0.3951712 0.167804,0.5533761 l -0.0024,-0.00371 -0.965496,0.9655191 C 12.917678,3.4915434 12.524925,3.3396885 12.096344,3.3396885 c -0.248304,0 -0.484478,0.05102 -0.699146,0.1432368 l 0.01168,-0.0045 L 11.13525,2.98174 c 0.209756,-0.182166 0.341277,-0.4492167 0.341277,-0.7471446 0,-0.5459686 -0.442603,-0.9883064 -0.988307,-0.9883064 -0.5457029,0 -0.9883059,0.4426024 -0.9883059,0.9883064 0,0.5459686 0.442603,0.9883065 0.9883059,0.9883065 0.0019,0 0.004,0 0.0058,0 h -2.64e-4 c 0.105445,-0.00159 0.206355,-0.019349 0.300462,-0.051396 l -0.0069,0.00212 0.27476,0.4990665 c -0.46566,0.32955 -0.765931,0.8653143 -0.767027,1.4717146 v 2.646e-4 c 0.0026,0.1848118 0.03315,0.3616862 0.0873,0.5274118 l -0.0034,-0.012473 -0.377183,0.1598669 C 9.8211121,5.5621191 9.5260181,5.3962424 9.1918086,5.3962424 c -0.5449103,0 -0.9864545,0.4415442 -0.9864545,0.9864545 0,0.5449102 0.4415442,0.9864545 0.9864545,0.9864545 0.5449105,0 0.9864544,-0.4415443 0.9864544,-0.9864545 0,-0.069917 -0.0071,-0.1379457 -0.02094,-0.2037095 l 0.0011,0.00635 0.376049,-0.1594885 c 0.309154,0.5546988 0.892347,0.923641 1.561561,0.923641 0.458514,0 0.876739,-0.1734729 1.192657,-0.4579845 l -0.0016,0.00132 0.877004,0.7969569 c -0.08881,0.1439949 -0.141724,0.318224 -0.142857,0.5051535 v 2.683e-4 c 0,0.5488784 0.444983,0.9938621 0.993862,0.9938621 0.548878,0 0.993862,-0.4449837 0.993862,-0.9938621 0,-0.5488787 -0.444984,-0.993862 -0.993862,-0.993862 v 0 z M 9.8969871,2.2291344 c 0,-0.3295603 0.2668239,-0.5963097 0.5963099,-0.5963097 0.32956,0 0.596309,0.2668238 0.596309,0.5963097 0,0.3295604 -0.266824,0.5963094 -0.596309,0.5963094 v 0 C 10.164113,2.824915 9.8975161,2.5582424 9.8969871,2.2291344 Z M 9.1840458,6.9785302 C 8.8548634,6.9782657 8.5882652,6.7117064 8.5882652,6.3824852 c 0,-0.3291822 0.2668239,-0.596045 0.5960452,-0.596045 0.3291827,0 0.5957807,0.2664459 0.5960447,0.5957805 v 0 C 9.7798261,6.7114041 9.5131541,6.9780011 9.1840458,6.9785302 Z M 15.014777,1.6328096 c 0.329561,0 0.59631,0.2668238 0.59631,0.5963097 0,0.3295603 -0.266823,0.5963094 -0.59631,0.5963094 -0.32956,0 -0.596309,-0.2668239 -0.596309,-0.5963094 v 0 c 5.29e-4,-0.3291824 0.267202,-0.5957806 0.596309,-0.5963097 z m -4.322693,3.511681 c 0,0 0,0 0,-2.642e-4 0,-0.7770774 0.629984,-1.4070612 1.407061,-1.4070612 0.777077,0 1.407061,0.6299838 1.407061,1.4070612 0,0.7770769 -0.629984,1.4070609 -1.407061,1.4070609 v 0 C 11.322332,6.5504936 10.692878,5.9210387 10.691819,5.1444906 v 0 z m 4.322693,3.2466716 c -0.32956,0 -0.596309,-0.2668238 -0.596309,-0.5963096 0,-0.3295606 0.266824,-0.5963099 0.596309,-0.5963099 0.329561,0 0.59631,0.2668238 0.59631,0.5963099 v 0 c -5.29e-4,0.3291823 -0.267201,0.5957805 -0.59631,0.5963096 z"
     id="path1"
     style="stroke-width:0.265033;fill:#3ecc5f;fill-opacity:1" />
  <metadata
     id="metadata1">
    <rdf:RDF>
      <cc:Work
         rdf:about="">
        <dc:title>network</dc:title>
      </cc:Work>
    </rdf:RDF>
  </metadata>
  <text
     xml:space="preserve"
     transform="scale(0.04)"
     id="text1"
     style="fill:#3ecc5f;fill-opacity:1;white-space:pre;shape-inside:url(#rect1)" />
  <text
     xml:space="preserve"
     style="font-size:1.49333px;fill:#3ecc5f;fill-opacity:1;stroke-width:0.04"
     x="4.8854737"
     y="10.765759"
     id="text2"><tspan
       sodipodi:role="line"
       id="tspan2"
       style="font-size:1.49333px;stroke-width:0.04"
       x="4.8854737"
       y="10.765759">Reactive Commons</tspan></text>
  <text
     xml:space="preserve"
     style="font-size:0.853333px;fill:#b3b3b3;fill-opacity:1;stroke-width:0.04"
     x="0.92119813"
     y="12.402658"
     id="text3"><tspan
       sodipodi:role="line"
       id="tspan3"
       style="font-size:0.853333px;stroke-width:0.04;fill:#b3b3b3"
       x="0.92119813"
       y="12.402658">Abstract your broker with semantic async messages</tspan></text>
</svg>
